HIERARCHY
ROOT hip
{
  OFFSET 0 0 0
  CHANNELS 6 Xposition Yposition Zposition Zrotation Yrotation Xrotation
  JOINT abdomen
  {
    OFFSET 0 20.6881 -0.73152
    CHANNELS 3 Zrotation Xrotation Yrotation
    JOINT chest
    {
      OFFSET 0 11.7043 -0.48768
      CHANNELS 3 Zrotation Xrotation Yrotation
      JOINT neck
      {
        OFFSET 0 22.1894 -2.19456
        CHANNELS 3 Zrotation Xrotation Yrotation
        JOINT head
        {
          OFFSET -0.24384 7.07133 1.2192
          CHANNELS 3 Zrotation Xrotation Yrotation
          JOINT leftEye
          {
            OFFSET 4.14528 8.04674 8.04672
            CHANNELS 3 Zrotation Xrotation Yrotation
            End Site
            {
              OFFSET 1 0 0
            }
          }
          JOINT rightEye
          {
            OFFSET -3.6576 8.04674 8.04672
            CHANNELS 3 Zrotation Xrotation Yrotation
            End Site
            {
              OFFSET 1 0 0
            }
          }
        }
      }
      JOINT rCollar
      {
        OFFSET -2.68224 19.2634 -4.8768
        CHANNELS 3 Zrotation Xrotation Yrotation
        JOINT rShldr
        {
          OFFSET -8.77824 -1.95073 1.46304
          CHANNELS 3 Zrotation Xrotation Yrotation
          JOINT rForeArm
          {
            OFFSET -28.1742 -1.7115 0.48768
            CHANNELS 3 Zrotation Xrotation Yrotation
            JOINT rHand
            {
              OFFSET -22.5879 0.773209 7.07136
              CHANNELS 3 Zrotation Xrotation Yrotation
              JOINT rThumb1
              {
                OFFSET -1.2192 -0.487915 3.41376
                CHANNELS 3 Zrotation Xrotation Yrotation
                JOINT rThumb2
                {
                  OFFSET -3.37035 -0.52449 3.41376
                  CHANNELS 3 Zrotation Xrotation Yrotation
                  End Site
                  {
                    OFFSET -1.78271 -1.18214 1.43049
                  }
                }
              }
              JOINT rIndex1
              {
                OFFSET -7.75947 0.938293 5.60832
                CHANNELS 3 Zrotation Xrotation Yrotation
                JOINT rIndex2
                {
                  OFFSET -2.54057 -0.884171 1.56538
                  CHANNELS 3 Zrotation Xrotation Yrotation
                  End Site
                  {
                    OFFSET -1.62519 -0.234802 1.16502
                  }
                }
              }
              JOINT rMid1
              {
                OFFSET -8.24714 1.18213 3.41376
                CHANNELS 3 Zrotation Xrotation Yrotation
                JOINT rMid2
                {
                  OFFSET -3.10165 -0.590103 1.0647
                  CHANNELS 3 Zrotation Xrotation Yrotation
                  End Site
                  {
                    OFFSET -2.48547 -0.328903 0.83742
                  }
                }
              }
              JOINT rRing1
              {
                OFFSET -8.82822 0.546677 1.51678
                CHANNELS 3 Zrotation Xrotation Yrotation
                JOINT rRing2
                {
                  OFFSET -2.60934 -0.819778 -0.0198488
                  CHANNELS 3 Zrotation Xrotation Yrotation
                  End Site
                  {
                    OFFSET -2.33842 -0.294052 0.168128
                  }
                }
              }
              JOINT rPinky1
              {
                OFFSET -8.27202 -0.0477905 -0.4584
                CHANNELS 3 Zrotation Xrotation Yrotation
                JOINT rPinky2
                {
                  OFFSET -1.82734 -0.647385 -0.700984
                  CHANNELS 3 Zrotation Xrotation Yrotation
                  End Site
                  {
                    OFFSET -1.69225 -0.51767 -0.607171
                  }
                }
              }
            }
          }
        }
      }
      JOINT lCollar
      {
        OFFSET 2.68224 19.2634 -4.8768
        CHANNELS 3 Zrotation Xrotation Yrotation
        JOINT lShldr
        {
          OFFSET 8.77824 -1.95073 1.46304
          CHANNELS 3 Zrotation Xrotation Yrotation
          JOINT lForeArm
          {
            OFFSET 28.1742 -1.7115 0.48768
            CHANNELS 3 Zrotation Xrotation Yrotation
            JOINT lHand
            {
              OFFSET 22.5879 0.773209 7.07136
              CHANNELS 3 Zrotation Xrotation Yrotation
              JOINT lThumb1
              {
                OFFSET 1.2192 -0.487915 3.41376
                CHANNELS 3 Zrotation Xrotation Yrotation
                JOINT lThumb2
                {
                  OFFSET 3.37035 -0.52449 3.41376
                  CHANNELS 3 Zrotation Xrotation Yrotation
                  End Site
                  {
                    OFFSET 1.78271 -1.18214 1.43049
                  }
                }
              }
              JOINT lIndex1
              {
                OFFSET 7.75947 0.938293 5.60832
                CHANNELS 3 Zrotation Xrotation Yrotation
                JOINT lIndex2
                {
                  OFFSET 2.54057 -0.884171 1.56538
                  CHANNELS 3 Zrotation Xrotation Yrotation
                  End Site
                  {
                    OFFSET 1.62519 -0.234802 1.16502
                  }
                }
              }
              JOINT lMid1
              {
                OFFSET 8.24714 1.18213 3.41376
                CHANNELS 3 Zrotation Xrotation Yrotation
                JOINT lMid2
                {
                  OFFSET 3.10165 -0.590103 1.0647
                  CHANNELS 3 Zrotation Xrotation Yrotation
                  End Site
                  {
                    OFFSET 2.48547 -0.328903 0.83742
                  }
                }
              }
              JOINT lRing1
              {
                OFFSET 8.82822 0.546677 1.51678
                CHANNELS 3 Zrotation Xrotation Yrotation
                JOINT lRing2
                {
                  OFFSET 2.60934 -0.819778 -0.0198488
                  CHANNELS 3 Zrotation Xrotation Yrotation
                  End Site
                  {
                    OFFSET 2.33842 -0.294052 0.168128
                  }
                }
              }
              JOINT lPinky1
              {
                OFFSET 8.27202 -0.0477905 -0.4584
                CHANNELS 3 Zrotation Xrotation Yrotation
                JOINT lPinky2
                {
                  OFFSET 1.82734 -0.647385 -0.700984
                  CHANNELS 3 Zrotation Xrotation Yrotation
                  End Site
                  {
                    OFFSET 1.69225 -0.51767 -0.607171
                  }
                }
              }
            }
          }
        }
      }
    }
  }
  JOINT rButtock
  {
    OFFSET -8.77824 4.35084 1.2192
    CHANNELS 3 Zrotation Xrotation Yrotation
    JOINT rThigh
    {
      OFFSET 0 -1.70687 -2.19456
      CHANNELS 3 Zrotation Xrotation Yrotation
      JOINT rShin
      {
        OFFSET 0 -36.8199 0.73152
        CHANNELS 3 Zrotation Xrotation Yrotation
        JOINT rFoot
        {
          OFFSET 0.73152 -45.1104 -5.12064
          CHANNELS 3 Zrotation Xrotation Yrotation
          End Site
          {
            OFFSET -1.1221 -3.69964 12.103
          }
        }
      }
    }
  }
  JOINT lButtock
  {
    OFFSET 8.77824 4.35084 1.2192
    CHANNELS 3 Zrotation Xrotation Yrotation
    JOINT lThigh
    {
      OFFSET 0 -1.70687 -2.19456
      CHANNELS 3 Zrotation Xrotation Yrotation
      JOINT lShin
      {
        OFFSET 0 -36.8199 0.73152
        CHANNELS 3 Zrotation Xrotation Yrotation
        JOINT lFoot
        {
          OFFSET -0.73152 -45.1104 -5.12064
          CHANNELS 3 Zrotation Xrotation Yrotation
          End Site
          {
            OFFSET 1.1221 -3.69964 12.103
          }
        }
      }
    }
  }
}
MOTION
Frames:	7
Frame Time:	0.00833333
58.635 133.356 43.317 186.005 -195.024 -145.897 -7.65054 -26.8985 0.0167429 3.28158 10.8238 0.240972 -4.12969 15.1931 -0.435255 10.5605 -19.5563 1.09206 -0.0 0.0 0.0 -0.0 0.0 0.0 -1.45133e-13 -1.60308e-13 -5.17228e-13 91.0445 52.1574 -10.2665 -28.3811 -33.9494 73.6225 -0.269019 -14.602 -2.09831 -1.66574e-10 1.24558e-08 -5.75211e-09 -2.17947e-10 2.14463e-08 -9.9415e-09 -1.66575e-10 1.24558e-08 -5.75211e-09 7.73091 5.47488 0.417314 -1.66575e-10 1.24558e-08 -5.75211e-09 2.90554 0.965183 0.102902 -1.66572e-10 1.24558e-08 -5.75211e-09 10.2786 0.731801 0.0259123 -1.6658e-10 1.24558e-08 -5.7521e-09 2.22167 -0.733487 -0.20892 -1.45335e-13 -1.60308e-13 -5.17521e-13 -27.2006 69.609 -53.4482 28.2815 -32.7027 -71.5887 0.088405 -8.28875 1.17353 -1.39502e-09 1.51984e-08 2.71338e-09 -2.43288e-09 2.62919e-08 4.69447e-09 -1.39502e-09 1.51984e-08 2.71338e-09 -7.73091 5.47488 -0.417314 -1.39502e-09 1.51984e-08 2.71337e-09 -2.90554 0.965183 -0.102902 -1.39503e-09 1.51984e-08 2.71337e-09 -10.2786 0.731801 -0.0259123 -1.39502e-09 1.51984e-08 2.71337e-09 -2.22167 -0.733487 0.20892 -2.03217e-16 0.0 -3.88251e-19 9.84435 -42.3433 -0.530505 -0.177939 27.7448 0.183962 1.64142 28.4428 -4.81779 2.03217e-16 0.0 3.88251e-19 -3.31319 -52.1841 -26.3359 0.164933 26.9459 -0.181548 -0.36484 32.5411 1.50544
58.5088 134.108 43.4856 186.669 -200.153 -145.403 -6.9062 -26.6182 -0.525113 3.07902 11.0901 0.0459628 -4.2404 15.0626 -0.381935 10.594 -19.5362 1.22202 -0.0 0.0 0.0 -0.0 0.0 0.0 -1.1837e-13 -2.01668e-13 -1.99682e-13 91.3126 51.7394 -11.1029 -28.3913 -34.1253 73.9086 -0.266152 -14.5194 -2.08597 -2.36735e-10 7.8862e-09 -3.95147e-09 -3.63763e-10 1.35737e-08 -6.82765e-09 -2.36737e-10 7.88619e-09 -3.95148e-09 7.73091 5.47488 0.417314 -2.36737e-10 7.88621e-09 -3.95148e-09 2.90554 0.965183 0.102902 -2.36731e-10 7.8862e-09 -3.95147e-09 10.2786 0.731801 0.0259123 -2.36743e-10 7.8862e-09 -3.95147e-09 2.22167 -0.733487 -0.20892 -1.18542e-13 -2.01667e-13 -1.99962e-13 -25.8281 69.1831 -54.6039 28.2962 -32.8604 -71.849 0.0755031 -7.7028 1.08938 -4.84309e-10 6.03981e-09 1.26104e-09 -8.49732e-10 1.04515e-08 2.18269e-09 -4.84311e-10 6.03981e-09 1.26105e-09 -7.73091 5.47488 -0.417314 -4.84308e-10 6.0398e-09 1.26104e-09 -2.90554 0.965183 -0.102902 -4.84314e-10 6.03981e-09 1.26104e-09 -10.2786 0.731801 -0.0259123 -4.84305e-10 6.03981e-09 1.26104e-09 -2.22167 -0.733487 0.20892 -2.03217e-16 0.0 -3.88251e-19 9.31246 -42.3961 -0.886907 -0.170871 27.5784 0.201712 1.37363 29.3763 -3.99829 2.03217e-16 0.0 3.88251e-19 -3.17693 -53.1304 -25.915 0.170981 27.4601 -0.201284 -0.415521 32.1546 1.61518
58.3344 134.711 43.6282 187.312 -205.258 -144.712 -6.26713 -26.2472 -1.01152 2.94506 11.2888 -0.133656 -4.32058 15.0025 -0.338955 10.6188 -19.5419 1.32811 -0.0 0.0 0.0 -0.0 0.0 0.0 -9.34189e-14 -2.20912e-13 1.36638e-13 91.5878 51.3832 -11.9052 -28.399 -34.2642 74.1326 -0.265236 -14.4937 -2.08213 -2.80004e-10 2.88652e-09 -1.94013e-09 -4.65825e-10 4.95989e-09 -3.34939e-09 -2.80006e-10 2.88651e-09 -1.94013e-09 7.73091 5.47488 0.417314 -2.80006e-10 2.88652e-09 -1.94013e-09 2.90554 0.965183 0.102902 -2.79998e-10 2.88652e-09 -1.94013e-09 10.2786 0.731801 0.0259123 -2.80012e-10 2.88652e-09 -1.94013e-09 2.22167 -0.733487 -0.20892 -9.35524e-14 -2.20912e-13 1.36374e-13 -24.9051 68.7793 -55.2969 28.3133 -33.0481 -72.1552 0.0603038 -6.95864 0.982895 5.05846e-10 -3.21962e-09 -3.49562e-10 8.71893e-10 -5.55867e-09 -6.02607e-10 5.05844e-10 -3.21962e-09 -3.49556e-10 -7.73091 5.47488 -0.417314 5.05847e-10 -3.21964e-09 -3.49562e-10 -2.90554 0.965183 -0.102902 5.05841e-10 -3.21962e-09 -3.49563e-10 -10.2786 0.731801 -0.0259123 5.0585e-10 -3.21962e-09 -3.4957e-10 -2.22167 -0.733487 0.20892 -2.03217e-16 0.0 -3.88251e-19 8.79181 -42.3461 -1.12591 -0.162512 27.4052 0.22254 1.00417 30.4851 -2.9832 2.03217e-16 0.0 3.88251e-19 -3.08471 -53.9495 -25.4615 0.178436 28.0415 -0.223316 -0.473697 31.7451 1.74696
58.129 135.179 43.8907 187.839 -210.275 -144.118 -5.86636 -25.8043 -1.46208 2.91964 11.3692 -0.295371 -4.37879 15.0238 -0.307511 10.6325 -19.5613 1.40526 -0.0 0.0 0.0 -0.0 0.0 0.0 -8.58255e-14 -1.81292e-13 3.40419e-13 91.8848 51.1404 -12.7161 -28.4033 -34.3568 74.285 -0.270405 -14.6427 -2.10438 -2.56025e-10 -6.23659e-10 -4.95683e-10 -4.43876e-10 -1.08782e-09 -8.51359e-10 -2.56028e-10 -6.23672e-10 -4.95689e-10 7.73091 5.47488 0.417314 -2.56028e-10 -6.23656e-10 -4.95689e-10 2.90554 0.965183 0.102902 -2.56017e-10 -6.23657e-10 -4.95687e-10 10.2786 0.731801 0.0259123 -2.56033e-10 -6.23657e-10 -4.95683e-10 2.22167 -0.733487 -0.20892 -8.59301e-14 -1.81292e-13 3.4017e-13 -24.1121 68.5022 -55.7431 28.334 -33.276 -72.5186 0.0538146 -6.60549 0.932517 1.19734e-09 -8.2295e-09 -1.58312e-09 2.07514e-09 -1.42085e-08 -2.73505e-09 1.19733e-09 -8.22949e-09 -1.58311e-09 -7.73091 5.47488 -0.417314 1.19734e-09 -8.22952e-09 -1.58312e-09 -2.90554 0.965183 -0.102902 1.19733e-09 -8.2295e-09 -1.58312e-09 -10.2786 0.731801 -0.0259123 1.19734e-09 -8.2295e-09 -1.58313e-09 -2.22167 -0.733487 0.20892 -2.03217e-16 0.0 -3.88251e-19 8.35146 -42.3051 -1.09184 -0.156657 27.3851 0.244831 0.6366 31.1185 -2.09278 2.03217e-16 0.0 3.88251e-19 -3.05788 -54.594 -25.0908 0.18702 28.6718 -0.240989 -0.628389 31.1536 2.1107
57.9911 135.559 44.2548 188.596 -214.873 -143.637 -5.81587 -25.2755 -1.86635 3.0557 11.298 -0.433113 -4.4064 15.1773 -0.293575 10.6308 -19.6029 1.43847 -0.0 0.0 0.0 -0.0 0.0 0.0 -1.05804e-13 -3.65022e-14 3.45145e-13 92.2889 51.0009 -13.6381 -28.4044 -34.3941 74.3493 -0.287283 -15.1066 -2.17392 -9.37697e-11 -2.12837e-09 3.0771e-10 -1.73993e-10 -3.68099e-09 5.38503e-10 -9.37718e-11 -2.12838e-09 3.07701e-10 7.73091 5.47488 0.417314 -9.37722e-11 -2.12837e-09 3.07705e-10 2.90554 0.965183 0.102902 -9.37617e-11 -2.12837e-09 3.07706e-10 10.2786 0.731801 0.0259123 -9.37767e-11 -2.12837e-09 3.0771e-10 2.22167 -0.733487 -0.20892 -1.05893e-13 -3.65018e-14 3.4491e-13 -23.3551 68.391 -56.0676 28.3529 -33.5271 -72.9309 0.0571833 -6.82973 0.964427 1.48683e-09 -6.59584e-09 -2.46468e-09 2.58187e-09 -1.13425e-08 -4.25733e-09 1.48683e-09 -6.59584e-09 -2.46467e-09 -7.73091 5.47488 -0.417314 1.48683e-09 -6.59585e-09 -2.46468e-09 -2.90554 0.965183 -0.102902 1.48682e-09 -6.59584e-09 -2.46468e-09 -10.2786 0.731801 -0.0259123 1.48683e-09 -6.59584e-09 -2.46469e-09 -2.22167 -0.733487 0.20892 -2.03217e-16 0.0 -3.88251e-19 8.00195 -42.2708 -0.69236 -0.154364 27.5744 0.270587 0.295703 31.1039 -1.34249 2.03217e-16 0.0 3.88251e-19 -3.17176 -54.9955 -24.8659 0.196918 29.3538 -0.250921 -0.931105 30.2632 2.85819
57.9492 135.852 44.5848 189.803 -219.036 -142.94 -6.01779 -24.658 -2.21873 3.3162 11.1089 -0.549707 -4.40261 15.4413 -0.294603 10.6164 -19.6694 1.435 -0.0 0.0 0.0 -0.0 0.0 0.0 -1.43039e-13 1.81688e-13 2.40238e-13 92.7761 50.9423 -14.626 -28.404 -34.3844 74.3336 -0.314117 -15.786 -2.27663 1.6515e-10 -2.65277e-09 8.40373e-10 2.66847e-10 -4.58572e-09 1.46046e-09 1.65149e-10 -2.65278e-09 8.4036e-10 7.73091 5.47488 0.417314 1.65148e-10 -2.65277e-09 8.40371e-10 2.90554 0.965183 0.102902 1.65158e-10 -2.65277e-09 8.40369e-10 10.2786 0.731801 0.0259123 1.65145e-10 -2.65277e-09 8.40373e-10 2.22167 -0.733487 -0.20892 -1.43117e-13 1.8169e-13 2.40017e-13 -22.7819 68.3903 -56.1585 28.3686 -33.7999 -73.3932 0.0655371 -7.32515 1.03509 1.57681e-09 -1.05016e-09 -3.22381e-09 2.74339e-09 -1.6926e-09 -5.56692e-09 1.57681e-09 -1.05016e-09 -3.2238e-09 -7.73091 5.47488 -0.417314 1.57682e-09 -1.05017e-09 -3.22381e-09 -2.90554 0.965183 -0.102902 1.57681e-09 -1.05016e-09 -3.22381e-09 -10.2786 0.731801 -0.0259123 1.57682e-09 -1.05016e-09 -3.22382e-09 -2.22167 -0.733487 0.20892 -2.03217e-16 0.0 -3.88251e-19 7.70736 -42.1917 -0.0285882 -0.153918 27.8833 0.300013 -0.0498318 30.7872 -0.596069 2.03217e-16 0.0 3.88251e-19 -3.40448 -55.1972 -24.7214 0.208042 30.0947 -0.257149 -1.29574 29.1794 3.83151
57.9739 136.052 44.8682 191.313 -222.968 -142.045 -6.29086 -23.9871 -2.54628 3.60619 10.8516 -0.655996 -4.38757 15.7174 -0.299024 10.5966 -19.7395 1.42316 -0.0 0.0 0.0 -0.0 0.0 0.0 -1.82287e-13 3.92922e-13 1.08293e-13 93.2025 51.0014 -15.5057 -28.4024 -34.344 74.2659 -0.342405 -16.4403 -2.3765 3.92129e-10 -2.5889e-09 9.91408e-10 6.57551e-10 -4.47633e-09 1.72217e-09 3.92129e-10 -2.5889e-09 9.91393e-10 7.73091 5.47488 0.417314 3.92128e-10 -2.5889e-09 9.9141e-10 2.90554 0.965183 0.102902 3.92136e-10 -2.5889e-09 9.91405e-10 10.2786 0.731801 0.0259123 3.92125e-10 -2.5889e-09 9.9141e-10 2.22167 -0.733487 -0.20892 -1.82357e-13 3.92923e-13 1.08085e-13 -22.4489 68.4582 -55.8618 28.3871 -34.127 -73.9336 0.0766963 -7.90209 1.11766 1.54793e-09 5.06971e-09 -3.63198e-09 2.69704e-09 8.94039e-09 -6.26969e-09 1.54792e-09 5.06971e-09 -3.63197e-09 -7.73091 5.47488 -0.417314 1.54793e-09 5.06972e-09 -3.63198e-09 -2.90554 0.965183 -0.102902 1.54792e-09 5.06972e-09 -3.63198e-09 -10.2786 0.731801 -0.0259123 1.54793e-09 5.06971e-09 -3.63199e-09 -2.22167 -0.733487 0.20892 -2.03217e-16 0.0 -3.88251e-19 7.46655 -42.1056 0.764661 -0.155046 28.2523 0.328843 -0.336712 30.3033 0.0324738 2.03217e-16 0.0 3.88251e-19 -3.63442 -55.319 -24.5837 0.219609 30.883 -0.264096 -1.61585 28.0788 4.78152
